<svg width="30" height="30" viewBox="0 0 30 30" fill="none" xmlns="http://www.w3.org/2000/svg">
<g clip-path="url(#clip0_5503_29103)">
<g clip-path="url(#clip1_5503_29103)">
<path d="M9.376 17.5C3.751 14.5 3.751 13 3.751 12.5C3.751 12 3.751 10.5 9.376 7.5M9.376 17.5C3.751 20.5 3.75 21.5 3.75 22.5M9.376 17.5C14.999 14.5 14.999 13 14.999 12.5C14.999 12 14.999 10.5 9.376 7.5M9.376 7.5C15 4.5 15 3.5 15 2.5M9.376 7.5L6.64 5.93C3.75 4.102 3.75 3.3 3.75 2.5" stroke="#40BB77" stroke-width="2"/>
<path d="M23.75 17.5H16.25V25H23.75V17.5Z" stroke="#40BB77" stroke-width="2" stroke-linecap="round"/>
<path d="M18.125 25V27.5M21.875 25V27.5M18.125 15V17.5M21.875 15V17.5M16.25 19.375H13.75M16.25 23.125H13.75M26.25 19.375H23.75M26.25 23.125H23.75" stroke="#40BB77" stroke-width="2" stroke-linejoin="round"/>
</g>
</g>
<defs>
<clipPath id="clip0_5503_29103">
<rect width="30" height="30" fill="white"/>
</clipPath>
<clipPath id="clip1_5503_29103">
<rect width="30" height="30" fill="white"/>
</clipPath>
</defs>
</svg>
