<svg width="30" height="33" viewBox="0 0 30 33" fill="none" xmlns="http://www.w3.org/2000/svg">
<rect width="30" height="33" fill="white"/>
<path fill-rule="evenodd" clip-rule="evenodd" d="M14.9995 2.19589C14.3935 2.19589 13.8485 2.36621 13.2795 2.63447C12.7365 2.88995 12.1135 3.26253 11.3605 3.71495L9.0945 5.07434C8.3125 5.54273 7.6665 5.93021 7.1645 6.30599C6.6365 6.69986 6.2045 7.12566 5.8885 7.70263C5.5725 8.27747 5.4365 8.88744 5.3725 9.57086C5.3125 10.2223 5.3125 11.0122 5.3125 11.9681V14.3782C5.3125 15.3341 5.3125 16.124 5.3725 16.7755C5.4365 17.4589 5.5725 18.0678 5.8885 18.6448C6.2045 19.2196 6.6365 19.6454 7.1645 20.0404C7.6665 20.4161 8.3125 20.8036 9.0945 21.272L11.3605 22.6314C12.1135 23.0828 12.7365 23.4564 13.2785 23.7119C13.8485 23.9801 14.3935 24.1515 14.9995 24.1515C15.6055 24.1515 16.1505 23.9812 16.7195 23.7119C17.2625 23.4564 17.8855 23.0838 18.6385 22.6314L20.9045 21.272C21.6865 20.8036 22.3325 20.4161 22.8345 20.0404C23.3625 19.6465 23.7945 19.2207 24.1105 18.6448C24.4265 18.0678 24.5625 17.4589 24.6265 16.7755C24.6865 16.124 24.6865 15.3341 24.6865 14.3782V11.9681C24.6865 11.0122 24.6865 10.2223 24.6265 9.57086C24.5625 8.88744 24.4265 8.27853 24.1105 7.70263C23.7945 7.12566 23.3625 6.70092 22.8345 6.30599C22.3325 5.93021 21.6865 5.54273 20.9045 5.07434L18.6395 3.71495C17.8865 3.26253 17.2635 2.88995 16.7215 2.63447C16.1515 2.36621 15.6065 2.19482 15.0005 2.19482L14.9995 2.19589ZM19.1245 11.7819C19.2811 11.7294 19.4265 11.6447 19.5523 11.5325C19.6781 11.4202 19.782 11.2827 19.8579 11.1278C19.9338 10.9728 19.9803 10.8035 19.9947 10.6294C20.0092 10.4553 19.9912 10.2799 19.942 10.1132C19.8928 9.94652 19.8131 9.79178 19.7077 9.65782C19.6023 9.52387 19.4731 9.41333 19.3276 9.33252C19.182 9.25171 19.0229 9.20221 18.8594 9.18685C18.6959 9.17149 18.5311 9.19056 18.3745 9.24299C16.7125 9.79973 15.1135 11.3699 14.0325 12.5962C13.6995 12.9741 13.3965 13.3414 13.1355 13.6714C12.9333 13.4685 12.711 13.2897 12.4725 13.1381C12.1905 12.9592 11.7825 12.7303 11.2495 12.7303C10.9295 12.7306 10.6218 12.8616 10.3898 13.0961C10.1578 13.3307 10.0191 13.651 10.0023 13.9912C9.98553 14.3313 10.0919 14.6654 10.2996 14.9245C10.5072 15.1837 10.8003 15.3482 11.1185 15.3842C11.2885 15.4449 11.6555 15.7685 12.0355 16.487C12.1386 16.6821 12.2864 16.8463 12.4649 16.9644C12.6435 17.0826 12.8472 17.1509 13.0572 17.163C13.2672 17.1751 13.4766 17.1306 13.6662 17.0337C13.8557 16.9367 14.0192 16.7904 14.1415 16.6084C14.4475 16.1985 15.3475 14.9935 15.8555 14.4165C16.9255 13.203 18.1385 12.1119 19.1245 11.7819Z" fill="#40BB77"/>
<path d="M9.15303 18.8569C9.3138 18.8927 9.46638 18.9618 9.60205 19.0603C9.73772 19.1588 9.85382 19.2848 9.94372 19.4311C10.0336 19.5774 10.0955 19.7412 10.126 19.913C10.1564 20.0848 10.1547 20.2613 10.121 20.4324L9.28303 24.7032C9.00703 26.1095 8.82503 27.0484 8.76803 27.7201C8.75803 27.8446 8.75203 27.9468 8.75103 28.0309C9.16303 27.8574 9.74103 27.5253 10.638 27.0026L13.512 25.3281C13.71 25.2121 13.926 25.0865 14.124 24.9949C14.354 24.8885 14.647 24.7863 15 24.7863C15.354 24.7863 15.647 24.8895 15.877 24.9949C16.075 25.0865 16.29 25.2121 16.488 25.3281L19.363 27.0026C20.26 27.5242 20.837 27.8574 21.25 28.0309C21.248 27.9271 21.2423 27.8234 21.233 27.7201C21.175 27.0484 20.993 26.1095 20.718 24.7032L19.88 20.4313C19.8432 20.259 19.839 20.0805 19.8676 19.9064C19.8963 19.7322 19.9573 19.5659 20.047 19.4171C20.1367 19.2684 20.2534 19.1401 20.3902 19.0399C20.527 18.9397 20.6812 18.8695 20.8438 18.8334C21.0064 18.7973 21.1741 18.7961 21.3371 18.8298C21.5002 18.8635 21.6553 18.9315 21.7934 19.0297C21.9314 19.1279 22.0498 19.2544 22.1414 19.4019C22.233 19.5493 22.2961 19.7147 22.327 19.8884L23.181 24.2423C23.436 25.5432 23.651 26.6343 23.722 27.4784C23.792 28.2896 23.782 29.3158 23.122 30.0908C22.7874 30.4905 22.3236 30.7414 21.823 30.7933C21.369 30.8423 20.941 30.7337 20.59 30.6071C19.936 30.3707 19.136 29.9045 18.26 29.3935L15.32 27.6807C15.2226 27.6212 15.1123 27.5899 15 27.5899C14.8877 27.5899 14.7774 27.6212 14.68 27.6807L11.74 29.3946C10.865 29.9045 10.064 30.3707 9.41003 30.6081C9.06003 30.7337 8.63103 30.8423 8.17703 30.7923C7.67642 30.7404 7.21258 30.4895 6.87803 30.0897C6.22003 29.3158 6.20903 28.2907 6.27803 27.4795C6.35003 26.6343 6.56403 25.5432 6.81903 24.2434L7.67403 19.8874C7.74182 19.542 7.93572 19.2394 8.21308 19.0461C8.49044 18.8529 8.82854 18.7848 9.15303 18.8569Z" fill="#40BB77"/>
</svg>
