<svg width="30" height="31" viewBox="0 0 30 31" fill="none" xmlns="http://www.w3.org/2000/svg">
<g clip-path="url(#clip0_5503_29086)">
<g clip-path="url(#clip1_5503_29086)">
<path d="M15 14.875C15.62 14.875 16.195 14.627 17.347 14.131L18.177 13.773C20.226 12.89 21.25 12.449 21.25 11.75C21.25 11.051 20.226 10.61 18.178 9.727L17.347 9.369C16.195 8.873 15.619 8.625 15 8.625C14.38 8.625 13.805 8.873 12.653 9.369L11.823 9.727C9.774 10.61 8.75 11.051 8.75 11.75C8.75 12.449 9.774 12.89 11.822 13.773L12.653 14.131C13.805 14.627 14.381 14.875 15 14.875ZM15 14.875V22.375" stroke="#40BB77" stroke-width="2" stroke-linejoin="round"/>
<path d="M21.25 11.75V19.25C21.25 19.949 20.226 20.39 18.178 21.273L17.347 21.631C16.195 22.127 15.619 22.375 15 22.375C14.38 22.375 13.805 22.127 12.653 21.631L11.823 21.273C9.773 20.39 8.75 19.948 8.75 19.25V11.75" stroke="#40BB77" stroke-width="2" stroke-linejoin="round"/>
<path d="M11.43 3.625C8.109 3.701 6.17 4.018 4.844 5.344C3.518 6.669 3.2 8.609 3.125 11.93M18.57 3.625C21.891 3.701 23.83 4.018 25.156 5.344C26.482 6.669 26.799 8.609 26.875 11.93M18.57 27.375C21.891 27.299 23.83 26.982 25.156 25.656C26.482 24.331 26.799 22.391 26.875 19.07M11.43 27.375C8.109 27.299 6.17 26.982 4.844 25.656C3.518 24.331 3.201 22.391 3.125 19.07" stroke="#40BB77" stroke-width="2" stroke-linecap="round" stroke-linejoin="round"/>
</g>
</g>
<defs>
<clipPath id="clip0_5503_29086">
<rect width="30" height="30" fill="white" transform="translate(0 0.5)"/>
</clipPath>
<clipPath id="clip1_5503_29086">
<rect width="30" height="30" fill="white" transform="translate(0 0.5)"/>
</clipPath>
</defs>
</svg>
