<svg width="34" height="32" viewBox="0 0 34 32" fill="none" xmlns="http://www.w3.org/2000/svg">
<rect width="34" height="32" fill="white"/>
<path d="M18.4875 22.7745C19.4282 22.7745 20.2408 22.7745 20.8902 22.854C21.5872 22.9386 22.2547 23.1306 22.7964 23.624C23.337 24.1174 23.549 24.7254 23.643 25.3603C23.702 25.7649 23.7212 26.2398 23.7269 26.7745C23.7292 27.0181 23.7314 27.1409 23.8142 27.2152C23.8969 27.2906 24.0295 27.2906 24.2958 27.2906H25.1968C25.9516 27.2906 26.5625 27.8687 26.5625 28.5809C26.5625 29.2932 25.9505 29.8712 25.1968 29.8712H8.8043C8.0495 29.8712 7.4375 29.2932 7.4375 28.5809C7.4375 27.8687 8.0495 27.2906 8.8043 27.2906H9.7053C9.97163 27.2906 10.1042 27.2906 10.187 27.2152C10.2697 27.1409 10.2708 27.0191 10.2742 26.7745C10.2799 26.2398 10.2992 25.766 10.3581 25.3603C10.4522 24.7254 10.6641 24.1174 11.2047 23.624C11.7464 23.1316 12.414 22.9386 13.111 22.854C13.7604 22.7734 14.573 22.7734 15.5136 22.7734L18.4875 22.7745Z" fill="#40BB77"/>
<path d="M18.4189 22.7746C18.4189 23.1168 18.2696 23.445 18.0039 23.687C17.7383 23.929 17.3779 24.0649 17.0022 24.0649C16.6265 24.0649 16.2661 23.929 16.0005 23.687C15.7348 23.445 15.5855 23.1168 15.5855 22.7746V19.1049C15.5855 18.7024 15.5855 18.5011 15.4416 18.4267C15.1413 18.2719 14.4318 18.8231 14.1621 18.9697C13.1693 19.5106 11.8977 19.8451 10.9037 19.1793C9.91547 18.5165 9.87467 17.3119 10.1342 16.2838L10.736 13.892C10.7711 13.7372 10.7009 13.4864 10.5773 13.3728L8.46934 11.4363C7.71681 10.7457 7.20907 9.81151 7.54114 8.85564C7.87547 7.89564 8.88527 7.40222 9.94041 7.24119L12.6355 6.82932C12.7283 6.81267 12.8158 6.77733 12.8917 6.7259C12.9676 6.67446 13.0299 6.60822 13.0741 6.53203L14.5701 3.78313C15.0529 2.90158 15.8711 2.12842 16.9988 2.12842C18.1287 2.12842 18.9447 2.90261 19.423 3.78519L20.9201 6.53616C21.0017 6.67551 21.1808 6.79319 21.3497 6.82726L24.0606 7.24016C25.1146 7.40222 26.1255 7.89461 26.4621 8.85358C26.7965 9.81151 26.2865 10.7478 25.5283 11.4394L23.4237 13.3728C23.299 13.4864 23.2287 13.7372 23.2639 13.892L23.8668 16.2838C24.1241 17.3119 24.0901 18.5196 23.0995 19.1824C22.1056 19.8482 20.8306 19.5085 19.8378 18.9697C19.5692 18.8242 18.8631 18.2729 18.5617 18.4288C18.4189 18.5021 18.4189 18.7044 18.4189 19.107V22.7746Z" fill="#40BB77"/>
</svg>
