<svg width="30" height="31" viewBox="0 0 30 31" fill="none" xmlns="http://www.w3.org/2000/svg">
<g clip-path="url(#clip0_5503_29120)">
<g clip-path="url(#clip1_5503_29120)">
<path d="M3.75 28.1719H26.25" stroke="#40BB77" stroke-width="2" stroke-linecap="round"/>
<path d="M21.25 24.4219L20 19.4219M10 19.4219L8.75 24.4219M15 20.6719V24.4219" stroke="#40BB77" stroke-width="2" stroke-linecap="round" stroke-linejoin="round"/>
<path d="M15 9.42188C15.62 9.42188 16.195 9.17387 17.347 8.67787L18.177 8.31987C20.226 7.43687 21.25 6.99588 21.25 6.29688C21.25 5.59787 20.226 5.15688 18.178 4.27387L17.347 3.91587C16.195 3.41987 15.619 3.17188 15 3.17188C14.38 3.17188 13.805 3.41987 12.653 3.91587L11.823 4.27387C9.773 5.15688 8.75 5.59787 8.75 6.29688C8.75 6.99588 9.774 7.43687 11.822 8.31987L12.653 8.67787C13.805 9.17387 14.381 9.42188 15 9.42188ZM15 9.42188V16.9219" stroke="#40BB77" stroke-width="2" stroke-linejoin="round"/>
<path d="M21.25 6.29688V13.7969C21.25 14.4959 20.226 14.9369 18.178 15.8199L17.347 16.1779C16.195 16.6739 15.619 16.9219 15 16.9219C14.38 16.9219 13.805 16.6739 12.653 16.1779L11.823 15.8199C9.774 14.9369 8.75 14.4959 8.75 13.7969V6.29688" stroke="#40BB77" stroke-width="2" stroke-linejoin="round"/>
</g>
</g>
<defs>
<clipPath id="clip0_5503_29120">
<rect width="30" height="30" fill="white" transform="translate(0 0.671875)"/>
</clipPath>
<clipPath id="clip1_5503_29120">
<rect width="30" height="30" fill="white" transform="translate(0 0.671875)"/>
</clipPath>
</defs>
</svg>
