<svg width="30" height="31" viewBox="0 0 30 31" fill="none" xmlns="http://www.w3.org/2000/svg">
<g clip-path="url(#clip0_5503_29172)">
<g clip-path="url(#clip1_5503_29172)">
<path d="M16.827 5.66406C19.96 5.66406 22.499 8.17506 22.499 11.2731C22.499 14.3711 19.959 16.8821 16.827 16.8821C14.047 16.8821 11.735 14.9051 11.249 12.2951M27.499 18.1281H23.749L20.624 19.8421H19.374C17.499 19.8421 16.249 21.2741 16.249 22.4901L19.999 23.7371L23.749 22.4901M16.25 21.8671L10.986 20.1171C10.3814 19.9157 9.72283 19.9525 9.14453 20.2201C8.56622 20.4877 8.11181 20.9659 7.874 21.5571L7.5 22.4911L18.75 28.0991L27.5 25.6311" stroke="#40BB77" stroke-width="2" stroke-linejoin="round"/>
<path d="M2.51091 6.30083C4.26991 6.30083 6.43091 4.60183 9.20691 3.44483C10.4839 2.91183 11.9239 3.03483 13.1989 3.57083C13.5819 3.73183 13.9359 3.89483 14.3989 4.14083C15.4739 4.71083 17.6129 5.74883 17.6129 5.74883C17.6129 5.74883 16.1079 5.78583 15.1279 6.24983C14.0549 6.75683 12.3559 8.73283 12.3559 8.73283M2.50391 14.4108H7.46391L11.2769 12.4968H14.3529C14.6004 12.4972 14.8455 12.4488 15.0743 12.3545C15.3031 12.2601 15.5111 12.1216 15.6863 11.9468C15.8616 11.772 16.0007 11.5644 16.0956 11.3359C16.1906 11.1073 16.2396 10.8623 16.2399 10.6148C16.2399 9.57483 15.3949 8.73283 14.3529 8.73283H10.3589" stroke="#40BB77" stroke-width="2"/>
</g>
</g>
<defs>
<clipPath id="clip0_5503_29172">
<rect width="30" height="30" fill="white" transform="translate(0 0.671875)"/>
</clipPath>
<clipPath id="clip1_5503_29172">
<rect width="30" height="30" fill="white" transform="translate(0 0.671875)"/>
</clipPath>
</defs>
</svg>
