<svg width="28" height="28" viewBox="0 0 28 28" fill="none" xmlns="http://www.w3.org/2000/svg">
<path fill-rule="evenodd" clip-rule="evenodd" d="M2.78502 6.53778C2.75002 6.32203 2.77502 6.29003 2.98502 6.27558C3.29502 6.25494 3.60802 6.25597 3.92002 6.25803H4.16602C4.37602 6.25803 4.38602 6.26629 4.41702 6.48513C5.04702 10.8691 8.46102 14.3179 12.749 14.8856V20.9078C10.809 21.329 9.20202 22.7091 8.30902 24.5383C7.56202 26.0702 8.60802 27.8715 10.197 27.8715H17.8C19.39 27.8715 20.436 26.0702 19.689 24.5383C18.796 22.7091 17.189 21.328 15.249 20.9078V14.8856C19.537 14.3179 22.952 10.8702 23.583 6.48513C23.614 6.26629 23.625 6.25803 23.833 6.25803H24.08C24.392 6.25597 24.704 6.25494 25.015 6.27558C25.238 6.29003 25.241 6.385 25.205 6.59455C25.175 6.7752 25.131 6.98474 25.074 7.25933C24.693 9.08436 23.872 10.6596 22.791 11.8126C22.6756 11.9341 22.5846 12.0779 22.5232 12.2358C22.4619 12.3938 22.4314 12.5627 22.4335 12.7328C22.4356 12.9029 22.4703 13.071 22.5356 13.2272C22.6009 13.3834 22.6954 13.5248 22.8139 13.6432C22.9323 13.7615 23.0722 13.8545 23.2256 13.9169C23.379 13.9792 23.5428 14.0096 23.7076 14.0063C23.8724 14.003 24.0349 13.9661 24.1859 13.8977C24.3368 13.8293 24.4731 13.7307 24.587 13.6077C26.015 12.0851 27.045 10.0671 27.517 7.80229L27.547 7.66397C27.641 7.21494 27.737 6.76074 27.749 6.29932C27.763 5.72952 27.635 5.15352 27.215 4.62707C26.77 4.06758 26.198 3.84565 25.655 3.75481C25.197 3.67739 24.645 3.67739 24.097 3.67842H23.854C23.64 3.67842 23.63 3.67016 23.601 3.44513C23.5751 3.22985 23.5333 3.01693 23.476 2.80823C23.301 2.18681 22.976 1.67997 22.448 1.18139C21.329 0.125389 20.034 0.127453 18.37 0.128486H9.63002C7.96602 0.127453 6.67002 0.125389 5.55202 1.18139C5.02502 1.67997 4.69902 2.18681 4.52402 2.80823C4.46602 3.01468 4.42602 3.22732 4.39902 3.44513C4.36902 3.67016 4.35902 3.67842 4.14602 3.67842H3.90302C3.35502 3.67842 2.80302 3.67842 2.34502 3.75481C1.80202 3.84565 1.23002 4.06758 0.785018 4.62707C0.365018 5.15352 0.237018 5.72952 0.251018 6.29932C0.262018 6.75042 0.369018 7.25829 0.466018 7.72487C0.924018 9.91326 1.89602 11.9902 3.41302 13.6077C3.64418 13.851 3.95919 13.99 4.28928 13.9944C4.61937 13.9988 4.93773 13.8682 5.17489 13.6311C5.41206 13.3941 5.54875 13.0698 5.55514 12.7291C5.56154 12.3884 5.43711 12.059 5.20902 11.8126C3.85902 10.3736 3.11202 8.48874 2.78502 6.53778Z" fill="#40BB77"/>
</svg>
