<svg width="30" height="30" viewBox="0 0 30 30" fill="none" xmlns="http://www.w3.org/2000/svg">
<g clip-path="url(#clip0_5503_29138)">
<g clip-path="url(#clip1_5503_29138)">
<path d="M3.75 27.5H26.25" stroke="#40BB77" stroke-width="2" stroke-linecap="round"/>
<path d="M21.25 23.75L20 18.75M10 18.75L8.75 23.75M15 20V23.75" stroke="#40BB77" stroke-width="2" stroke-linecap="round" stroke-linejoin="round"/>
<path d="M15 8.75C15.62 8.75 16.195 8.502 17.347 8.006L18.177 7.648C20.226 6.765 21.25 6.324 21.25 5.625C21.25 4.926 20.226 4.485 18.178 3.602L17.347 3.244C16.195 2.748 15.619 2.5 15 2.5C14.38 2.5 13.805 2.748 12.653 3.244L11.823 3.602C9.773 4.485 8.75 4.926 8.75 5.625C8.75 6.324 9.774 6.765 11.822 7.648L12.653 8.006C13.805 8.502 14.381 8.75 15 8.75ZM15 8.75V16.25" stroke="#40BB77" stroke-width="2" stroke-linejoin="round"/>
<path d="M21.25 5.625V13.125C21.25 13.824 20.226 14.265 18.178 15.148L17.347 15.506C16.195 16.002 15.619 16.25 15 16.25C14.38 16.25 13.805 16.002 12.653 15.506L11.823 15.148C9.774 14.265 8.75 13.824 8.75 13.125V5.625" stroke="#40BB77" stroke-width="2" stroke-linejoin="round"/>
</g>
</g>
<defs>
<clipPath id="clip0_5503_29138">
<rect width="30" height="30" fill="white"/>
</clipPath>
<clipPath id="clip1_5503_29138">
<rect width="30" height="30" fill="white"/>
</clipPath>
</defs>
</svg>
