<svg width="30" height="31" viewBox="0 0 30 31" fill="none" xmlns="http://www.w3.org/2000/svg">
<path d="M15.0004 18L21.8754 23.625M15.0004 18L8.12538 23.625M15.0004 18V9.25M12.9904 5.113C13.8814 3.704 14.3274 3 15.0004 3C15.6724 3 16.1184 3.704 17.0104 5.113L17.6524 6.125C18.5324 7.515 18.9724 8.21 18.6384 8.73C18.3034 9.25 17.4164 9.25 15.6414 9.25H14.3604C12.5854 9.25 11.6984 9.25 11.3634 8.73C11.0284 8.21 11.4694 7.515 12.3494 6.125L12.9904 5.113ZM26.5404 24.426C27.3204 25.938 27.7104 26.694 27.3864 27.281C27.0624 27.869 26.2424 27.893 24.6024 27.942L23.4254 27.977C21.8074 28.025 20.9984 28.049 20.7134 27.487C20.4284 26.924 20.8554 26.148 21.7114 24.597L22.3294 23.476C23.1844 21.924 23.6124 21.148 24.2194 21.126C24.8274 21.103 25.2124 21.849 25.9814 23.34L26.5404 24.426ZM3.46038 24.426C2.68038 25.938 2.29038 26.694 2.61438 27.281C2.93838 27.869 3.75838 27.893 5.39838 27.942L6.57538 27.977C8.19338 28.025 9.00238 28.049 9.28738 27.487C9.57238 26.924 9.14538 26.148 8.28938 24.597L7.67138 23.476C6.81638 21.924 6.38838 21.148 5.78138 21.126C5.17338 21.103 4.78838 21.849 4.01938 23.34L3.46038 24.426Z" stroke="#40BB77" stroke-width="2"/>
</svg>
