<svg width="30" height="31" viewBox="0 0 30 31" fill="none" xmlns="http://www.w3.org/2000/svg">
<g clip-path="url(#clip0_5503_29156)">
<g clip-path="url(#clip1_5503_29156)">
<path d="M27.5 15.6719C27.5 22.5759 21.904 28.1719 15 28.1719C8.096 28.1719 2.5 22.5759 2.5 15.6719C2.5 8.76788 8.096 3.17188 15 3.17188C21.904 3.17188 27.5 8.76788 27.5 15.6719Z" stroke="#40BB77" stroke-width="2"/>
<path d="M23.5646 6.5675C22.5466 12.4475 17.4196 16.9205 11.2496 16.9205C8.06488 16.9254 4.99935 15.7098 2.68359 13.5235M27.2626 13.2335C24.6166 19.0935 18.7216 23.1705 11.8746 23.1705C8.91959 23.1705 6.14159 22.4105 3.72559 21.0755M4.56659 8.7805C5.73778 9.70716 7.1266 10.3187 8.60091 10.5571C10.0752 10.7954 11.586 10.6525 12.9895 10.142C14.393 9.63159 15.6425 8.77051 16.6193 7.64073C17.596 6.51095 18.2674 5.15005 18.5696 3.6875" stroke="#40BB77" stroke-width="2" stroke-linecap="round" stroke-linejoin="round"/>
</g>
</g>
<defs>
<clipPath id="clip0_5503_29156">
<rect width="30" height="30" fill="white" transform="translate(0 0.671875)"/>
</clipPath>
<clipPath id="clip1_5503_29156">
<rect width="30" height="30" fill="white" transform="translate(0 0.671875)"/>
</clipPath>
</defs>
</svg>
