<svg width="30" height="31" viewBox="0 0 30 31" fill="none" xmlns="http://www.w3.org/2000/svg">
<rect width="30" height="31" fill="white"/>
<path d="M15.0019 15.8129C15.8809 15.8129 16.4819 16.4719 16.8159 17.1459L17.8019 19.1349C17.8383 19.1761 17.8829 19.2091 17.9329 19.2319L19.7129 19.5299C20.4529 19.6539 21.2269 20.0449 21.4869 20.8619C21.7469 21.6769 21.3429 22.4449 20.8119 22.9769L19.4279 24.3719C19.3963 24.4267 19.3791 24.4886 19.3779 24.5519L19.7749 26.2789C19.9499 27.0449 19.9539 28.0559 19.1779 28.6259C18.3979 29.1989 17.4339 28.8859 16.7609 28.4839L15.0909 27.4869C15.0321 27.4721 14.9704 27.4728 14.9119 27.4889L13.2449 28.4839C12.5699 28.8879 11.6079 29.1959 10.8289 28.6239C10.0549 28.0539 10.0539 27.0469 10.2309 26.2789L10.6269 24.5519C10.6256 24.4886 10.6084 24.4267 10.5769 24.3719L9.19091 22.9749C8.66291 22.4429 8.26091 21.6769 8.51991 20.8629C8.77891 20.0459 9.55191 19.6539 10.2919 19.5299L12.0679 19.2329C12.1175 19.2094 12.1617 19.1761 12.1979 19.1349L13.1849 17.1449C13.5209 16.4699 14.1239 15.8129 15.0019 15.8129ZM23.3419 2.11389C24.0219 2.20489 24.8199 2.46789 25.3759 3.22989C25.7049 3.67989 25.8299 4.18589 25.8859 4.70689C25.9539 5.33889 25.9389 5.97789 25.9389 6.61189C25.9389 8.28489 25.8219 9.87289 24.2819 10.9019C23.8189 11.2119 23.2749 11.4649 22.9079 11.6559L18.7509 13.8179C17.9589 14.2279 17.3109 14.5659 16.7489 14.7969C16.1609 15.0369 15.6089 15.1869 15.0009 15.1869C14.3949 15.1869 13.8419 15.0369 13.2539 14.7969C12.6919 14.5669 12.0439 14.2289 11.2519 13.8169L7.09391 11.6569C4.74791 10.4369 4.06391 9.20489 4.06391 6.61289C4.06391 5.97789 4.04891 5.33889 4.11691 4.70689C4.17291 4.18589 4.29691 3.67889 4.62691 3.22989C5.18291 2.46789 5.98191 2.20489 6.65991 2.11389C7.14391 2.04789 7.68691 2.06089 8.09591 2.06989C9.72991 2.10689 11.3669 2.07489 13.0009 2.07489C13.3549 2.07489 13.5309 2.07489 13.6409 2.18489C13.7509 2.29489 13.7509 2.47189 13.7509 2.82489V6.74989C13.7509 7.08141 13.8826 7.39935 14.117 7.63377C14.3514 7.86819 14.6694 7.99989 15.0009 7.99989C15.3324 7.99989 15.6504 7.86819 15.8848 7.63377C16.1192 7.39935 16.2509 7.08141 16.2509 6.74989V2.82489C16.2509 2.47189 16.2509 2.29489 16.3609 2.18489C16.4709 2.07489 16.6479 2.07489 17.0009 2.07489C18.6359 2.07489 20.2729 2.10689 21.9069 2.06989C22.3169 2.05989 22.8579 2.04789 23.3419 2.11389Z" fill="#40BB77"/>
</svg>
